# xmcd
#
# Track frame offsets:
#	150
#	16906
#	33442
#	47031
#	66686
#	86674
#	105609
#	122152
#	139826
#	159883
#	177187
#	196823
#	214877
#	232326
#	250689
#
# Disc length: 3512 seconds
#
# Revision: 1
# Processed by: cddbd v1.5.2PL0 Copyright (c) Steve Scherf et al.
# Submitted via: audiograbber 1.83.01
#
DISCID=d30db60f
DTITLE=Country - CB60211
DYEAR=1900
DGENRE=Karaoke
TTITLE0=Aaron Tippin - People Like Us
TTITLE1=Alabama - When it All Goes South
TTITLE2=Geogia Middleman - Kick down The Door
TTITLE3=George Jones - Our Bed Of Roses
TTITLE4=Randy Travis - Down With The Old
TTITLE5=Soyna Isaacs - How Can I Forget
TTITLE6=Collin Raye - She's All That
TTITLE7=Ronnie Milsap - Livin' On Love
TTITLE8=Jessica Andrews - Who Am I
TTITLE9=Diamond Rio - One More Day With You
TTITLE10=Chalee Tennison - Go Back
TTITLE11=Tim Rushlow - She Misses Him
TTITLE12=Mindy Mccready - Scream
TTITLE13=Steve Holy - Hunger
TTITLE14=Danni Liegh - Longneck And Cigarettes
EXTD=
EXTT0=
EXTT1=
EXTT2=
EXTT3=
EXTT4=
EXTT5=
EXTT6=
EXTT7=
EXTT8=
EXTT9=
EXTT10=
EXTT11=
EXTT12=
EXTT13=
EXTT14=
PLAYORDER=
